<mxfile host="app.diagrams.net" modified="2021-12-01T22:22:25.261Z" agent="5.0 (Macintosh; Intel Mac OS X 10_15_7) AppleWebKit/537.36 (KHTML, like Gecko) Chrome/96.0.4664.55 Safari/537.36" etag="1GP_PHMoEqcWhD3xzSDU" version="15.8.8" type="github">
  <diagram id="UfNpsCcYTtWqRNBC5JqH" name="Page-1">
    <mxGraphModel dx="946" dy="500" grid="1" gridSize="10" guides="1" tooltips="1" connect="1" arrows="1" fold="1" page="1" pageScale="1" pageWidth="850" pageHeight="1100" background="none" math="0" shadow="0">
      <root>
        <mxCell id="0" />
        <mxCell id="1" parent="0" />
        <mxCell id="ae1JXEyfN0HXcWX9K4T6-3" value="（一）&lt;br&gt;齐国的地理环境与原始文化" style="shape=ext;double=1;rounded=1;whiteSpace=wrap;html=1;" parent="1" vertex="1">
          <mxGeometry width="100" height="80" as="geometry" />
        </mxCell>
        <mxCell id="ae1JXEyfN0HXcWX9K4T6-4" value="&lt;span&gt;第二节&lt;br&gt;齐地夏代文化&lt;br&gt;&lt;/span&gt;" style="shape=ext;double=1;rounded=1;whiteSpace=wrap;html=1;" parent="1" vertex="1">
          <mxGeometry y="80" width="120" height="80" as="geometry" />
        </mxCell>
        <mxCell id="ae1JXEyfN0HXcWX9K4T6-5" value="（二）&lt;br&gt;先齐东夷海岱文化的形成和发展&lt;span&gt;&lt;br&gt;&lt;/span&gt;" style="shape=ext;double=1;rounded=1;whiteSpace=wrap;html=1;" parent="1" vertex="1">
          <mxGeometry y="80" width="120" height="80" as="geometry" />
        </mxCell>
        <mxCell id="ae1JXEyfN0HXcWX9K4T6-6" value="（三）&lt;br&gt;&lt;span&gt;齐国史是邦国史&lt;br&gt;&lt;/span&gt;" style="shape=ext;double=1;rounded=1;whiteSpace=wrap;html=1;" parent="1" vertex="1">
          <mxGeometry y="160" width="100" height="80" as="geometry" />
        </mxCell>
        <mxCell id="ae1JXEyfN0HXcWX9K4T6-7" value="（四）&lt;br&gt;&lt;span&gt;承前启后的管仲改革&lt;br&gt;&lt;/span&gt;" style="shape=ext;double=1;rounded=1;whiteSpace=wrap;html=1;" parent="1" vertex="1">
          <mxGeometry y="240" width="120" height="80" as="geometry" />
        </mxCell>
        <mxCell id="ae1JXEyfN0HXcWX9K4T6-14" value="古代文明更取决于地理条件&lt;br&gt;" style="rounded=1;whiteSpace=wrap;html=1;" parent="1" vertex="1">
          <mxGeometry x="400" y="50" width="160" height="60" as="geometry" />
        </mxCell>
        <mxCell id="ae1JXEyfN0HXcWX9K4T6-15" value="马克思对地理决定论的看法：仅否定片面理解" style="rounded=1;whiteSpace=wrap;html=1;" parent="1" vertex="1">
          <mxGeometry x="400" y="130" width="160" height="60" as="geometry" />
        </mxCell>
        <mxCell id="ae1JXEyfN0HXcWX9K4T6-16" value="马克思如何考虑自然因素" style="rounded=1;whiteSpace=wrap;html=1;" parent="1" vertex="1">
          <mxGeometry x="410" y="210" width="140" height="60" as="geometry" />
        </mxCell>
        <mxCell id="ae1JXEyfN0HXcWX9K4T6-17" value="以奥地利王权为例" style="rounded=1;whiteSpace=wrap;html=1;" parent="1" vertex="1">
          <mxGeometry x="410" y="270" width="70" height="60" as="geometry" />
        </mxCell>
        <mxCell id="ae1JXEyfN0HXcWX9K4T6-18" value="两类土地富源" style="rounded=1;whiteSpace=wrap;html=1;" parent="1" vertex="1">
          <mxGeometry x="480" y="270" width="70" height="60" as="geometry" />
        </mxCell>
        <mxCell id="ae1JXEyfN0HXcWX9K4T6-24" value="自然环境孕育人类文明的四个条件" style="rounded=1;whiteSpace=wrap;html=1;" parent="1" vertex="1">
          <mxGeometry x="420" y="370" width="120" height="60" as="geometry" />
        </mxCell>
        <mxCell id="ae1JXEyfN0HXcWX9K4T6-25" value="大陆民族和海洋民族" style="rounded=1;whiteSpace=wrap;html=1;" parent="1" vertex="1">
          <mxGeometry x="420" y="450" width="120" height="60" as="geometry" />
        </mxCell>
        <mxCell id="ae1JXEyfN0HXcWX9K4T6-26" value="中国自然环境 1：&lt;br&gt;隔绝&lt;br&gt;主体内向型文化" style="rounded=1;whiteSpace=wrap;html=1;" parent="1" vertex="1">
          <mxGeometry x="420" y="510" width="120" height="60" as="geometry" />
        </mxCell>
        <mxCell id="ae1JXEyfN0HXcWX9K4T6-27" value="&lt;span&gt;中国自然环境 2：&lt;br&gt;平原辐射&lt;br&gt;天朝心态&lt;br&gt;&lt;/span&gt;" style="rounded=1;whiteSpace=wrap;html=1;" parent="1" vertex="1">
          <mxGeometry x="420" y="590" width="120" height="60" as="geometry" />
        </mxCell>
        <mxCell id="ae1JXEyfN0HXcWX9K4T6-28" value="齐地的自然环境具有海洋性&lt;br&gt;（东方地中海）" style="rounded=1;whiteSpace=wrap;html=1;" parent="1" vertex="1">
          <mxGeometry x="400" y="670" width="160" height="60" as="geometry" />
        </mxCell>
        <mxCell id="ae1JXEyfN0HXcWX9K4T6-29" value="齐地的先秦史简介" style="rounded=1;whiteSpace=wrap;html=1;" parent="1" vertex="1">
          <mxGeometry x="420" y="750" width="120" height="30" as="geometry" />
        </mxCell>
        <mxCell id="ae1JXEyfN0HXcWX9K4T6-30" value="齐地的山川" style="rounded=1;whiteSpace=wrap;html=1;" parent="1" vertex="1">
          <mxGeometry x="420" y="780" width="120" height="30" as="geometry" />
        </mxCell>
        <mxCell id="ae1JXEyfN0HXcWX9K4T6-31" value="齐地的河海" style="rounded=1;whiteSpace=wrap;html=1;" parent="1" vertex="1">
          <mxGeometry x="420" y="830" width="120" height="30" as="geometry" />
        </mxCell>
        <mxCell id="ae1JXEyfN0HXcWX9K4T6-33" value="齐地的土质" style="rounded=1;whiteSpace=wrap;html=1;" parent="1" vertex="1">
          <mxGeometry x="420" y="880" width="120" height="30" as="geometry" />
        </mxCell>
        <mxCell id="ae1JXEyfN0HXcWX9K4T6-34" value="齐地的气候" style="rounded=1;whiteSpace=wrap;html=1;" parent="1" vertex="1">
          <mxGeometry x="420" y="930" width="120" height="30" as="geometry" />
        </mxCell>
        <mxCell id="ae1JXEyfN0HXcWX9K4T6-35" value="齐地的资源" style="rounded=1;whiteSpace=wrap;html=1;" parent="1" vertex="1">
          <mxGeometry x="420" y="980" width="120" height="30" as="geometry" />
        </mxCell>
        <mxCell id="ae1JXEyfN0HXcWX9K4T6-37" value="为什么齐地是主体外向型文化" style="rounded=1;whiteSpace=wrap;html=1;" parent="1" vertex="1">
          <mxGeometry x="400" y="1030" width="160" height="60" as="geometry" />
        </mxCell>
        <mxCell id="ae1JXEyfN0HXcWX9K4T6-38" value="&lt;span&gt;海岱文化&lt;/span&gt;" style="rounded=1;whiteSpace=wrap;html=1;" parent="1" vertex="1">
          <mxGeometry x="720" y="50" width="120" height="60" as="geometry" />
        </mxCell>
        <mxCell id="ae1JXEyfN0HXcWX9K4T6-39" value="沂源猿人" style="rounded=1;whiteSpace=wrap;html=1;" parent="1" vertex="1">
          <mxGeometry x="720" y="130" width="120" height="60" as="geometry" />
        </mxCell>
        <mxCell id="ae1JXEyfN0HXcWX9K4T6-40" value="北辛文化&lt;br&gt;大汶口文化&lt;br&gt;石山文化&lt;br&gt;岳石文化&lt;br&gt;珍珠门文化" style="rounded=1;whiteSpace=wrap;html=1;" parent="1" vertex="1">
          <mxGeometry x="720" y="210" width="120" height="70" as="geometry" />
        </mxCell>
        <mxCell id="ae1JXEyfN0HXcWX9K4T6-41" value="海岱文化处于北辛大汶口时间之交" style="rounded=1;whiteSpace=wrap;html=1;" parent="1" vertex="1">
          <mxGeometry x="710" y="300" width="140" height="30" as="geometry" />
        </mxCell>
        <mxCell id="ae1JXEyfN0HXcWX9K4T6-42" value="&lt;span&gt;汶泗海岱文化&lt;/span&gt;" style="rounded=1;whiteSpace=wrap;html=1;" parent="1" vertex="1">
          <mxGeometry x="710" y="330" width="140" height="30" as="geometry" />
        </mxCell>
        <mxCell id="ae1JXEyfN0HXcWX9K4T6-43" value="环胶东海岱文化" style="rounded=1;whiteSpace=wrap;html=1;" parent="1" vertex="1">
          <mxGeometry x="720" y="380" width="120" height="60" as="geometry" />
        </mxCell>
        <mxCell id="ae1JXEyfN0HXcWX9K4T6-44" value="海岱文化和夷方" style="rounded=1;whiteSpace=wrap;html=1;" parent="1" vertex="1">
          <mxGeometry x="720" y="460" width="120" height="60" as="geometry" />
        </mxCell>
        <mxCell id="ae1JXEyfN0HXcWX9K4T6-45" value="九夷部落" style="rounded=1;whiteSpace=wrap;html=1;" parent="1" vertex="1">
          <mxGeometry x="720" y="540" width="120" height="30" as="geometry" />
        </mxCell>
        <mxCell id="ae1JXEyfN0HXcWX9K4T6-46" value="涿鹿之战" style="rounded=1;whiteSpace=wrap;html=1;" parent="1" vertex="1">
          <mxGeometry x="720" y="570" width="120" height="30" as="geometry" />
        </mxCell>
        <mxCell id="ae1JXEyfN0HXcWX9K4T6-47" value="后羿部落" style="rounded=1;whiteSpace=wrap;html=1;" parent="1" vertex="1">
          <mxGeometry x="720" y="620" width="120" height="30" as="geometry" />
        </mxCell>
        <mxCell id="ae1JXEyfN0HXcWX9K4T6-48" value="弓箭的发明" style="rounded=1;whiteSpace=wrap;html=1;" parent="1" vertex="1">
          <mxGeometry x="720" y="650" width="120" height="30" as="geometry" />
        </mxCell>
        <mxCell id="ae1JXEyfN0HXcWX9K4T6-49" value="夏商时代的后羿部落" style="rounded=1;whiteSpace=wrap;html=1;" parent="1" vertex="1">
          <mxGeometry x="720" y="700" width="120" height="60" as="geometry" />
        </mxCell>
        <mxCell id="ae1JXEyfN0HXcWX9K4T6-50" value="东夷人的迁徙" style="rounded=1;whiteSpace=wrap;html=1;" parent="1" vertex="1">
          <mxGeometry x="720" y="780" width="120" height="60" as="geometry" />
        </mxCell>
        <mxCell id="ae1JXEyfN0HXcWX9K4T6-51" value="海岱是迁徙中心区" style="rounded=1;whiteSpace=wrap;html=1;" parent="1" vertex="1">
          <mxGeometry x="720" y="860" width="120" height="30" as="geometry" />
        </mxCell>
        <mxCell id="ae1JXEyfN0HXcWX9K4T6-52" value="研究海岱文化的意义" style="rounded=1;whiteSpace=wrap;html=1;" parent="1" vertex="1">
          <mxGeometry x="720" y="890" width="120" height="30" as="geometry" />
        </mxCell>
        <mxCell id="ae1JXEyfN0HXcWX9K4T6-53" value="东夷人的&lt;br&gt;农业，手工业和酿酒" style="rounded=1;whiteSpace=wrap;html=1;" parent="1" vertex="1">
          <mxGeometry x="720" y="940" width="120" height="60" as="geometry" />
        </mxCell>
        <mxCell id="ae1JXEyfN0HXcWX9K4T6-54" value="大汶口：山头记历" style="rounded=1;whiteSpace=wrap;html=1;" parent="1" vertex="1">
          <mxGeometry x="720" y="1020" width="120" height="60" as="geometry" />
        </mxCell>
        <mxCell id="ae1JXEyfN0HXcWX9K4T6-55" value="大汶口：纺织业" style="rounded=1;whiteSpace=wrap;html=1;" parent="1" vertex="1">
          <mxGeometry x="720" y="1100" width="120" height="60" as="geometry" />
        </mxCell>
        <mxCell id="ae1JXEyfN0HXcWX9K4T6-56" value="大汶口：牙梳，祭祀&lt;br&gt;（海洋文明风俗）" style="rounded=1;whiteSpace=wrap;html=1;" parent="1" vertex="1">
          <mxGeometry x="720" y="1180" width="120" height="60" as="geometry" />
        </mxCell>
        <mxCell id="ae1JXEyfN0HXcWX9K4T6-57" value="大汶口：总结" style="rounded=1;whiteSpace=wrap;html=1;" parent="1" vertex="1">
          <mxGeometry x="720" y="1260" width="120" height="60" as="geometry" />
        </mxCell>
        <mxCell id="ae1JXEyfN0HXcWX9K4T6-58" value="龙山：简介" style="rounded=1;whiteSpace=wrap;html=1;" parent="1" vertex="1">
          <mxGeometry x="720" y="1340" width="120" height="60" as="geometry" />
        </mxCell>
        <mxCell id="ae1JXEyfN0HXcWX9K4T6-59" value="龙山：&lt;br&gt;铜制工具和金属加工" style="rounded=1;whiteSpace=wrap;html=1;" parent="1" vertex="1">
          <mxGeometry x="720" y="1420" width="120" height="60" as="geometry" />
        </mxCell>
        <mxCell id="ae1JXEyfN0HXcWX9K4T6-60" value="岳石：（夏代）简介" style="rounded=1;whiteSpace=wrap;html=1;" parent="1" vertex="1">
          <mxGeometry x="720" y="1500" width="120" height="60" as="geometry" />
        </mxCell>
        <mxCell id="ae1JXEyfN0HXcWX9K4T6-61" value="殷商东侵和东夷式微" style="rounded=1;whiteSpace=wrap;html=1;" parent="1" vertex="1">
          <mxGeometry x="720" y="1580" width="120" height="60" as="geometry" />
        </mxCell>
        <mxCell id="ae1JXEyfN0HXcWX9K4T6-62" value="东夷文化总结" style="rounded=1;whiteSpace=wrap;html=1;" parent="1" vertex="1">
          <mxGeometry x="720" y="1660" width="120" height="60" as="geometry" />
        </mxCell>
        <mxCell id="ae1JXEyfN0HXcWX9K4T6-64" value="&lt;span&gt;城邦的建立&lt;/span&gt;" style="rounded=1;whiteSpace=wrap;html=1;" parent="1" vertex="1">
          <mxGeometry x="1000" y="50" width="120" height="60" as="geometry" />
        </mxCell>
        <mxCell id="ae1JXEyfN0HXcWX9K4T6-65" value="吕尚建国和严峻的政治形势" style="rounded=1;whiteSpace=wrap;html=1;" parent="1" vertex="1">
          <mxGeometry x="980" y="130" width="160" height="60" as="geometry" />
        </mxCell>
        <mxCell id="ae1JXEyfN0HXcWX9K4T6-67" value="&lt;span&gt;（过渡句）&lt;/span&gt;" style="rounded=1;whiteSpace=wrap;html=1;" parent="1" vertex="1">
          <mxGeometry x="1000" y="210" width="120" height="20" as="geometry" />
        </mxCell>
        <mxCell id="ae1JXEyfN0HXcWX9K4T6-68" value="&lt;span&gt;姜氏齐国的统战政策：&lt;br&gt;安抚教化辅以军事镇压&lt;br&gt;&lt;/span&gt;" style="rounded=1;whiteSpace=wrap;html=1;" parent="1" vertex="1">
          <mxGeometry x="990" y="250" width="140" height="60" as="geometry" />
        </mxCell>
        <mxCell id="ae1JXEyfN0HXcWX9K4T6-69" value="&lt;span&gt;中国不是自古以来的专制体制&lt;/span&gt;" style="rounded=1;whiteSpace=wrap;html=1;" parent="1" vertex="1">
          <mxGeometry x="1000" y="330" width="120" height="60" as="geometry" />
        </mxCell>
        <mxCell id="ae1JXEyfN0HXcWX9K4T6-70" value="&lt;span&gt;西周分封概况&lt;/span&gt;&lt;span style=&quot;color: rgba(0 , 0 , 0 , 0) ; font-family: monospace ; font-size: 0px&quot;&gt;%3CmxGraphModel%3E%3Croot%3E%3CmxCell%20id%3D%220%22%2F%3E%3CmxCell%20id%3D%221%22%20parent%3D%220%22%2F%3E%3CmxCell%20id%3D%222%22%20value%3D%22%26lt%3Bspan%26gt%3B%E4%B8%AD%E5%9B%BD%E4%B8%8D%E6%98%AF%E8%87%AA%E5%8F%A4%E4%BB%A5%E6%9D%A5%E7%9A%84%E4%B8%93%E5%88%B6%E4%BD%93%E5%88%B6%26lt%3B%2Fspan%26gt%3B%22%20style%3D%22rounded%3D1%3BwhiteSpace%3Dwrap%3Bhtml%3D1%3B%22%20vertex%3D%221%22%20parent%3D%221%22%3E%3CmxGeometry%20x%3D%221000%22%20y%3D%22330%22%20width%3D%22120%22%20height%3D%2260%22%20as%3D%22geometry%22%2F%3E%3C%2FmxCell%3E%3C%2Froot%3E%3C%2FmxGraphModel%3E&lt;/span&gt;" style="rounded=1;whiteSpace=wrap;html=1;" parent="1" vertex="1">
          <mxGeometry x="1000" y="410" width="120" height="60" as="geometry" />
        </mxCell>
        <mxCell id="ae1JXEyfN0HXcWX9K4T6-71" value="西周的诸侯国：有疆无界" style="rounded=1;whiteSpace=wrap;html=1;" parent="1" vertex="1">
          <mxGeometry x="970" y="490" width="180" height="30" as="geometry" />
        </mxCell>
        <mxCell id="ae1JXEyfN0HXcWX9K4T6-72" value="齐鲁：封建制度和生产力的矛盾" style="rounded=1;whiteSpace=wrap;html=1;" parent="1" vertex="1">
          <mxGeometry x="970" y="520" width="180" height="40" as="geometry" />
        </mxCell>
        <mxCell id="ae1JXEyfN0HXcWX9K4T6-73" value="鲁：激进封建化&lt;span style=&quot;color: rgba(0 , 0 , 0 , 0) ; font-family: monospace ; font-size: 0px&quot;&gt;%3CmxGraphModel%3E%3Croot%3E%3CmxCell%20id%3D%220%22%2F%3E%3CmxCell%20id%3D%221%22%20parent%3D%220%22%2F%3E%3CmxCell%20id%3D%222%22%20value%3D%22%E9%BD%90%E9%B2%81%EF%BC%9A%E5%B0%81%E5%BB%BA%E5%88%B6%E5%BA%A6%E5%92%8C%E7%94%9F%E4%BA%A7%E5%8A%9B%E7%9A%84%E7%9F%9B%E7%9B%BE%22%20style%3D%22rounded%3D1%3BwhiteSpace%3Dwrap%3Bhtml%3D1%3B%22%20vertex%3D%221%22%20parent%3D%221%22%3E%3CmxGeometry%20x%3D%22970%22%20y%3D%22520%22%20width%3D%22180%22%20height%3D%2240%22%20as%3D%22geometry%22%2F%3E%3C%2FmxCell%3E%3C%2Froot%3E%3C%2FmxGraphModel%3E&lt;/span&gt;" style="rounded=1;whiteSpace=wrap;html=1;" parent="1" vertex="1">
          <mxGeometry x="970" y="560" width="90" height="40" as="geometry" />
        </mxCell>
        <mxCell id="ae1JXEyfN0HXcWX9K4T6-74" value="齐：（简其礼）&lt;br&gt;选择性接收风偃集团" style="rounded=1;whiteSpace=wrap;html=1;" parent="1" vertex="1">
          <mxGeometry x="1060" y="560" width="90" height="60" as="geometry" />
        </mxCell>
        <mxCell id="ae1JXEyfN0HXcWX9K4T6-75" value="封建制度为什么比奴隶制度先进" style="rounded=1;whiteSpace=wrap;html=1;" parent="1" vertex="1">
          <mxGeometry x="1000" y="660" width="120" height="60" as="geometry" />
        </mxCell>
        <mxCell id="ae1JXEyfN0HXcWX9K4T6-76" value="齐国的封建先进性渐渐体现" style="rounded=1;whiteSpace=wrap;html=1;" parent="1" vertex="1">
          <mxGeometry x="1000" y="720" width="120" height="60" as="geometry" />
        </mxCell>
        <mxCell id="ae1JXEyfN0HXcWX9K4T6-77" value="城邦作为政治实体有整体性" style="rounded=1;whiteSpace=wrap;html=1;" parent="1" vertex="1">
          <mxGeometry x="1000" y="780" width="120" height="30" as="geometry" />
        </mxCell>
        <mxCell id="ae1JXEyfN0HXcWX9K4T6-78" value="结构分析上有国野分治&lt;br&gt;（城市，国家机构，公民公社）" style="rounded=1;whiteSpace=wrap;html=1;" parent="1" vertex="1">
          <mxGeometry x="980" y="810" width="170" height="60" as="geometry" />
        </mxCell>
        <mxCell id="ae1JXEyfN0HXcWX9K4T6-79" value="城的起源&lt;br&gt;城堡到城市" style="rounded=1;whiteSpace=wrap;html=1;" parent="1" vertex="1">
          <mxGeometry x="1000" y="890" width="120" height="60" as="geometry" />
        </mxCell>
        <mxCell id="ae1JXEyfN0HXcWX9K4T6-80" value="西周封建革命和新意识形态" style="rounded=1;whiteSpace=wrap;html=1;" parent="1" vertex="1">
          <mxGeometry x="980" y="970" width="160" height="60" as="geometry" />
        </mxCell>
        <mxCell id="ae1JXEyfN0HXcWX9K4T6-81" value="天地人&lt;br&gt;君国民" style="rounded=1;whiteSpace=wrap;html=1;" parent="1" vertex="1">
          <mxGeometry x="980" y="1030" width="160" height="30" as="geometry" />
        </mxCell>
        <mxCell id="ae1JXEyfN0HXcWX9K4T6-82" value="神权脱离单一部落" style="rounded=1;whiteSpace=wrap;html=1;" parent="1" vertex="1">
          <mxGeometry x="980" y="1060" width="160" height="30" as="geometry" />
        </mxCell>
        <mxCell id="ae1JXEyfN0HXcWX9K4T6-83" value="君主权利被限制" style="rounded=1;whiteSpace=wrap;html=1;" parent="1" vertex="1">
          <mxGeometry x="980" y="1090" width="160" height="30" as="geometry" />
        </mxCell>
        <mxCell id="ae1JXEyfN0HXcWX9K4T6-84" value="西周宗法制&lt;br&gt;君主 卿大夫 国人" style="rounded=1;whiteSpace=wrap;html=1;" parent="1" vertex="1">
          <mxGeometry x="1000" y="1140" width="120" height="60" as="geometry" />
        </mxCell>
        <mxCell id="ae1JXEyfN0HXcWX9K4T6-85" value="齐国早熟的封建制保留了前封建社会特色" style="rounded=1;whiteSpace=wrap;html=1;" parent="1" vertex="1">
          <mxGeometry x="1000" y="1200" width="120" height="30" as="geometry" />
        </mxCell>
        <mxCell id="ae1JXEyfN0HXcWX9K4T6-86" value="西周时代对君臣的道德约束" style="rounded=1;whiteSpace=wrap;html=1;" parent="1" vertex="1">
          <mxGeometry x="980" y="1250" width="160" height="60" as="geometry" />
        </mxCell>
        <mxCell id="ae1JXEyfN0HXcWX9K4T6-87" value="卿大夫&lt;br&gt;以族为国，以家治国" style="rounded=1;whiteSpace=wrap;html=1;" parent="1" vertex="1">
          <mxGeometry x="980" y="1330" width="160" height="60" as="geometry" />
        </mxCell>
      </root>
    </mxGraphModel>
  </diagram>
</mxfile>
